#!OML:ASF F:\VICON\USERDATA\INSTALL\rory3\rory3.ASF
:FULLY-SPECIFIED
:DEGREES
3774
root -2.21513 17.7274 -0.565341 1.05114 6.44991 0.933946
lowerback 6.17967 -0.775879 -2.90396
upperback 0.56847 -1.179 1.73983
thorax -2.78316 -0.544642 3.53048
lowerneck -23.0917 -4.37804 -12.026
upperneck 20.4982 -4.25356 9.26114
head 10.8998 -1.75624 4.69692
rclavicle 9.0944e-015 3.57812e-015
rhumerus -10.6801 -41.5386 -21.8191
rradius 36.163
rwrist 21.2327
rhand -35.9841 -4.4432
rfingers 7.12502
rthumb -9.09443 -34.2271
lclavicle 9.0944e-015 3.57812e-015
lhumerus -6.96335 35.6812 18.3137
lradius 27.928
lwrist -2.8937
lhand -25.2063 27.9417
lfingers 7.12502
lthumb 1.31236 57.9174
rfemur -11.4887 -2.1453 12.4831
rtibia 31.7272
rfoot -19.625 -10.6305
rtoes 0.494821
lfemur -12.623 4.43157 -10.108
ltibia 35.4628
lfoot -10.9073 7.6411
ltoes -24.7535
3775
root -2.22917 17.7235 -0.58054 1.10516 6.21091 0.953775
lowerback 6.19792 -0.782709 -2.82392
upperback 0.574656 -1.18343 1.72584
thorax -2.78852 -0.547823 3.47138
lowerneck -22.7562 -4.31477 -12.0065
upperneck 20.2982 -4.17939 9.17356
head 10.7524 -1.73663 4.66605
rclavicle 1.83876e-015 5.56597e-015
rhumerus -9.19232 -41.1266 -22.6584
rradius 36.3624
rwrist 21.1243
rhand -36.1947 -4.18772
rfingers 7.12502
rthumb -9.2977 -33.9627
lclavicle 1.83876e-015 5.56597e-015
lhumerus -5.50748 35.3409 19.2081
lradius 28.255
lwrist -2.81399
lhand -25.2688 27.7508
lfingers 7.12502
lthumb 1.25193 57.7268
rfemur -11.7359 -2.03767 12.4856
rtibia 31.8461
rfoot -19.5975 -10.3941
rtoes 1.02743
lfemur -12.8128 4.47279 -10.2109
ltibia 35.4247
lfoot -12.3733 6.14081
ltoes -25.5137
3776
root -2.24069 17.7232 -0.595325 1.17395 5.88732 1.03826
lowerback 6.20591 -0.788069 -2.86023
upperback 0.555151 -1.19349 1.72199
thorax -2.8117 -0.551721 3.4892
lowerneck -22.4124 -4.27019 -12.023
upperneck 20.1949 -4.12181 9.0706
head 10.6421 -1.73043 4.6358
rclavicle -5.61567e-015 3.97569e-016
rhumerus -7.54596 -40.8238 -23.6241
rradius 36.4621
rwrist 21.1986
rhand -36.3522 -4.1558
rfingers 7.12502
rthumb -9.44967 -33.9239
lclavicle -5.61567e-015 3.97569e-016
lhumerus -4.22677 34.9749 20.0626
lradius 28.5782
lwrist -2.66395
lhand -25.3989 27.6098
lfingers 7.12502
lthumb 1.12629 57.5866
rfemur -12.007 -1.91667 12.4179
rtibia 31.9815
rfoot -19.5259 -10.2192
rtoes 1.3016
lfemur -13.0229 4.44119 -10.43
ltibia 35.3241
lfoot -13.798 4.82374
ltoes -27.0174
3777
root -2.24816 17.7271 -0.607518 1.18821 5.61628 1.09861
lowerback 6.28096 -0.828973 -2.8271
upperback 0.537746 -1.24752 1.72088
thorax -2.86807 -0.577675 3.47579
lowerneck -22.3007 -4.18175 -12.0735
upperneck 20.2606 -3.98374 9.01597
head 10.6284 -1.6812 4.6477
rclavicle -1.99282e-014 9.93923e-015
rhumerus -5.84178 -40.5678 -24.6594
rradius 36.44
rwrist 21.3189
rhand -36.575 -4.03411
rfingers 7.12502
rthumb -9.66461 -33.7924
lclavicle -1.99282e-014 9.93923e-015
lhumerus -3.07352 34.5907 20.8357
lradius 28.838
lwrist -2.46817
lhand -25.5557 27.5035
lfingers 7.12502
lthumb 0.974865 57.4811
rfemur -12.2077 -1.73743 12.377
rtibia 32.1477
rfoot -19.5112 -10.1626
rtoes 1.48677
lfemur -13.2136 4.35953 -10.6305
ltibia 35.1543
lfoot -15.0983 3.52637
ltoes -28.2689
3778
root -2.2524 17.7227 -0.62118 1.16632 5.40084 1.1279
lowerback 6.4216 -0.85261 -2.71763
upperback 0.530353 -1.27479 1.70682
thorax -2.95495 -0.590846 3.40508
lowerneck -22.3302 -4.06577 -12.0034
upperneck 20.265 -3.81925 8.92866
head 10.6117 -1.61038 4.62974
rclavicle -1.01877e-014 -1.19271e-015
rhumerus -4.31473 -40.2569 -25.5835
rradius 36.3587
rwrist 21.4411
rhand -36.6503 -3.93835
rfingers 7.12502
rthumb -9.73729 -33.6933
lclavicle -1.01877e-014 -1.19271e-015
lhumerus -1.74937 34.6751 21.7554
lradius 28.9002
lwrist -3.2869
lhand -24.5114 26.7938
lfingers 7.12502
lthumb 1.98345 56.7643
rfemur -12.4004 -1.57187 12.3719
rtibia 32.3549
rfoot -19.487 -10.1096
rtoes 1.44087
lfemur -13.2836 4.3076 -10.797
ltibia 34.904
lfoot -16.2699 2.09499
ltoes -28.9377
3779
root -2.25481 17.7118 -0.635866 1.21724 5.11608 1.24003
lowerback 6.4421 -0.824466 -2.71959
upperback 0.510472 -1.23829 1.69638
thorax -2.99007 -0.571755 3.39303
lowerneck -22.4754 -3.95684 -11.8036
upperneck 20.3643 -3.65436 8.66351
head 10.6449 -1.54942 4.52655
rclavicle -9.29318e-015 -4.77083e-015
rhumerus -2.96439 -39.7545 -26.3614
rradius 36.2893
rwrist 21.4619
rhand -36.6835 -3.95158
rfingers 7.12502
rthumb -9.76931 -33.705
lclavicle -9.29318e-015 -4.77083e-015
lhumerus -0.346522 34.8603 22.8586
lradius 28.8665
lwrist -4.53721
lhand -22.8528 26.0504
lfingers 7.12502
lthumb 3.58526 56
rfemur -12.727 -1.3606 12.262
rtibia 32.622
rfoot -19.4759 -10.0684
rtoes 1.13283
lfemur -13.3144 4.16355 -11.098
ltibia 34.5486
lfoot -17.3998 0.584728
ltoes -29.0962
3780
root -2.25473 17.7022 -0.649423 1.27027 4.78001 1.39677
lowerback 6.42707 -0.822197 -2.79308
upperback 0.479291 -1.23987 1.71264
thorax -3.0119 -0.570676 3.45174
lowerneck -22.4133 -3.84731 -11.7863
upperneck 20.4675 -3.46884 8.46781
head 10.645 -1.48972 4.48278
rclavicle 1.2424e-015 1.59028e-015
rhumerus -1.47158 -39.2804 -27.2591
rradius 36.0919
rwrist 21.6319
rhand -36.5506 -3.66147
rfingers 7.12502
rthumb -9.64108 -33.4209
lclavicle 1.2424e-015 1.59028e-015
lhumerus 0.741385 34.5538 23.835
lradius 28.8813
lwrist -4.85767
lhand -22.366 25.782
lfingers 7.12502
lthumb 4.05535 55.7232
rfemur -13.0754 -1.09723 12.0878
rtibia 32.9624
rfoot -19.5263 -10.0374
rtoes 0.957386
lfemur -13.3202 4.00542 -11.4803
ltibia 34.0895
lfoot -18.3843 -1.0734
ltoes -29.5231
3781
root -2.25393 17.6961 -0.659109 1.26975 4.5016 1.63806
lowerback 6.39787 -0.845551 -2.95648
upperback 0.524998 -1.2826 1.69214
thorax -2.94175 -0.592098 3.52498
lowerneck -22.1588 -3.76623 -11.9164
upperneck 20.3926 -3.32767 8.42608
head 10.5561 -1.44451 4.50833
rclavicle -1.14798e-014 -7.15625e-015
rhumerus -0.0133152 -38.8528 -28.2566
rradius 35.8727
rwrist 21.8206
rhand -36.3581 -3.18402
rfingers 7.12502
rthumb -9.45538 -32.9519
lclavicle -1.14798e-014 -7.15625e-015
lhumerus 1.8314 34.2311 24.8948
lradius 28.8141
lwrist -4.39541
lhand -22.8457 25.6593
lfingers 7.12502
lthumb 3.59208 55.6087
rfemur -13.3261 -0.773454 11.8219
rtibia 33.3378
rfoot -19.6739 -10.0932
rtoes 0.675985
lfemur -13.2572 3.92196 -11.9682
ltibia 33.5591
lfoot -19.1106 -2.80649
ltoes -30.6701
3782
root -2.25087 17.6884 -0.665573 1.25576 4.24249 1.76338
lowerback 6.31191 -0.84848 -2.99634
upperback 0.604053 -1.28735 1.67917
thorax -2.81086 -0.597936 3.53108
lowerneck -22.0118 -3.72562 -11.9784
upperneck 20.3333 -3.25233 8.37521
head 10.4989 -1.42302 4.50932
rclavicle 1.17283e-014 -2.06736e-014
rhumerus 1.31261 -38.5366 -29.2677
rradius 35.6407
rwrist 22.1083
rhand -36.3666 -3.04881
rfingers 7.12502
rthumb -9.46356 -32.8163
lclavicle 1.17283e-014 -2.06736e-014
lhumerus 3.04976 34.0261 26.1095
lradius 28.6536
lwrist -3.83479
lhand -23.3887 25.6099
lfingers 7.12502
lthumb 3.06774 55.5676
rfemur -13.5656 -0.438949 11.6762
rtibia 33.7239
rfoot -19.8487 -10.1369
rtoes 0.701532
lfemur -13.1392 3.77975 -12.3321
ltibia 33.0109
lfoot -19.6338 -4.24727
ltoes -31.6987
3783
root -2.24489 17.6743 -0.67313 1.22949 3.97144 1.74879
lowerback 6.28273 -0.827228 -2.88915
upperback 0.651898 -1.2502 1.69597
thorax -2.75002 -0.582504 3.48344
lowerneck -21.9165 -3.70013 -11.9081
upperneck 20.312 -3.20328 8.18528
head 10.4634 -1.41926 4.4336
rclavicle 2.38542e-014 -7.95139e-015
rhumerus 2.36289 -38.1483 -30.1014
rradius 35.4361
rwrist 22.2509
rhand -36.2355 -2.92471
rfingers 7.12502
rthumb -9.337 -32.6979
lclavicle 2.38542e-014 -7.95139e-015
lhumerus 4.33887 34.0651 27.4675
lradius 28.4114
lwrist -4.01043
lhand -23.6874 25.6036
lfingers 7.12502
lthumb 2.77927 55.5652
rfemur -13.8162 -0.120903 11.6729
rtibia 34.1059
rfoot -20.0127 -10.0808
rtoes 0.779899
lfemur -12.9816 3.69688 -12.5575
ltibia 32.4943
lfoot -19.9229 -5.22494
ltoes -31.9759
3784
root -2.23568 17.6564 -0.682417 1.23603 3.69383 1.72823
lowerback 6.24369 -0.832267 -2.76845
upperback 0.655592 -1.24599 1.75383
thorax -2.72598 -0.582025 3.47402
lowerneck -21.6812 -3.64577 -11.9953
upperneck 20.2168 -3.09845 8.08689
head 10.3738 -1.39271 4.42448
rclavicle 2.1419e-014 0
rhumerus 3.25351 -37.4775 -30.7767
rradius 35.2995
rwrist 22.1484
rhand -35.93 -2.64411
rfingers 7.12502
rthumb -9.0423 -32.4303
lclavicle 2.1419e-014 0
lhumerus 5.23819 33.978 28.701
lradius 28.3636
lwrist -4.32687
lhand -23.642 25.8998
lfingers 7.12502
lthumb 2.82306 55.8608
rfemur -14.1027 0.0977141 11.6566
rtibia 34.4528
rfoot -20.0595 -9.94683
rtoes 1.06351
lfemur -12.8846 3.67592 -12.814
ltibia 32.0425
lfoot -20.0115 -5.83782
ltoes -31.674
3785
root -2.22297 17.642 -0.690539 1.30687 3.38988 1.76773
lowerback 6.0979 -0.840634 -2.66706
upperback 0.647011 -1.24686 1.76651
thorax -2.65507 -0.584781 3.42668
lowerneck -21.4747 -3.54449 -12.0467
upperneck 20.177 -2.94816 8.02292
head 10.304 -1.33844 4.43065
rclavicle 1.73937e-015 3.97569e-015
rhumerus 4.2316 -37.1224 -31.7419
rradius 35.0857
rwrist 22.4341
rhand -35.4447 -2.44972
rfingers 7.12502
rthumb -8.57391 -32.2556
lclavicle 1.73937e-015 3.97569e-015
lhumerus 5.95838 33.7005 29.821
lradius 28.386
lwrist -4.36258
lhand -23.6788 26.1041
lfingers 7.12502
lthumb 2.78756 56.0656
rfemur -14.4345 0.200485 11.5468
rtibia 34.7519
rfoot -20.0323 -9.72484
rtoes 1.12864
lfemur -12.8945 3.67291 -13.1767
ltibia 31.6471
lfoot -19.9864 -6.23899
ltoes -31.8995
